PathFileType	4	(X/Y/Z)	C:\Users\italobelli\Desktop\GitHub\PTbot_officialCBL\Personal_Results\FLX22_noisy1.trc
DataRate	CameraRate	NumFrames	NumMarkers	Units	OrigDataRate	OrigDataStartFrame	OrigNumFrames
106.125000	106.125000	21	9	m	106.125000	107	850
Frame#	Time		gu		centelbow		EpL		centpxt8		centijc7		ij		ts		aa		ai
			X1	Y1	Z1	X2	Y2	Z2	X3	Y3	Z3	X4	Y4	Z4	X5	Y5	Z5	X6	Y6	Z6	X7	Y7	Z7	X8	Y8	Z8	X9	Y9	Z9

107	0.99882	-0.078182	-0.022177	0.16564	-0.1289	-0.25557	0.19718	-0.11263	-0.25182	0.22476	-0.046816	-0.15316	-0.008669	-0.046816	0.031938	-0.008669	0	0	0	-0.13581	0.029375	0.053807	-0.10597	0.017736	0.16869	-0.15762	-0.082026	0.053596
108	1.0082	-0.078156	-0.022216	0.16565	-0.12845	-0.25552	0.19754	-0.11216	-0.25174	0.2251	-0.046816	-0.15316	-0.008669	-0.046816	0.031938	-0.008669	0	0	0	-0.13584	0.029349	0.053813	-0.10597	0.017724	0.16869	-0.15765	-0.082043	0.053623
109	1.0177	-0.078122	-0.02225	0.16565	-0.12787	-0.25546	0.19794	-0.11157	-0.25164	0.22549	-0.046816	-0.15316	-0.008669	-0.046816	0.031938	-0.008669	0	0	0	-0.13587	0.029315	0.053817	-0.10597	0.017714	0.16869	-0.15768	-0.08207	0.053656
110	1.0271	-0.07808	-0.022278	0.16565	-0.12716	-0.25538	0.19838	-0.11085	-0.25151	0.22591	-0.046816	-0.15316	-0.008669	-0.046816	0.031938	-0.008669	0	0	0	-0.1359	0.029274	0.053818	-0.10597	0.017708	0.16869	-0.15772	-0.082107	0.053695
111	1.0365	-0.07803	-0.022301	0.16565	-0.12632	-0.2553	0.19886	-0.11	-0.25136	0.22637	-0.046816	-0.15316	-0.008669	-0.046816	0.031938	-0.008669	0	0	0	-0.13593	0.029225	0.053816	-0.10597	0.017704	0.16868	-0.15774	-0.082153	0.053738
112	1.0459	-0.077971	-0.022318	0.16564	-0.12536	-0.25519	0.19937	-0.10904	-0.25119	0.22687	-0.046816	-0.15316	-0.008669	-0.046816	0.031938	-0.008669	0	0	0	-0.13596	0.029169	0.053813	-0.10596	0.017703	0.16867	-0.15777	-0.082209	0.053788
113	1.0554	-0.077905	-0.022329	0.16562	-0.12429	-0.25508	0.19993	-0.10797	-0.25099	0.22741	-0.046816	-0.15316	-0.008669	-0.046816	0.031938	-0.008669	0	0	0	-0.136	0.029107	0.053807	-0.10595	0.017705	0.16866	-0.15779	-0.082274	0.053842
114	1.0648	-0.077832	-0.022336	0.16561	-0.12309	-0.25494	0.20051	-0.10679	-0.25078	0.22798	-0.046816	-0.15316	-0.008669	-0.046816	0.031938	-0.008669	0	0	0	-0.13604	0.029037	0.0538	-0.10594	0.017709	0.16865	-0.15781	-0.082348	0.053902
115	1.0742	-0.077752	-0.022337	0.16559	-0.12179	-0.2548	0.20113	-0.1055	-0.25053	0.22858	-0.046816	-0.15316	-0.008669	-0.046816	0.031938	-0.008669	0	0	0	-0.13608	0.028961	0.05379	-0.10593	0.017716	0.16863	-0.15783	-0.08243	0.053967
116	1.0836	-0.077664	-0.022333	0.16556	-0.12038	-0.25464	0.20178	-0.10411	-0.25027	0.22921	-0.046816	-0.15316	-0.008669	-0.046816	0.031938	-0.008669	0	0	0	-0.13612	0.028879	0.053779	-0.10591	0.017725	0.16862	-0.15784	-0.082521	0.054037
117	1.0931	-0.07757	-0.022323	0.16553	-0.11887	-0.25447	0.20246	-0.10262	-0.24998	0.22987	-0.046816	-0.15316	-0.008669	-0.046816	0.031938	-0.008669	0	0	0	-0.13616	0.02879	0.053765	-0.10589	0.017737	0.1686	-0.15785	-0.08262	0.054112
118	1.1025	-0.077469	-0.022309	0.1655	-0.11725	-0.25429	0.20316	-0.10103	-0.24968	0.23056	-0.046816	-0.15316	-0.008669	-0.046816	0.031938	-0.008669	0	0	0	-0.1362	0.028695	0.05375	-0.10588	0.017751	0.16857	-0.15786	-0.082726	0.054193
119	1.1119	-0.077362	-0.022289	0.16546	-0.11555	-0.25409	0.2039	-0.099358	-0.24935	0.23128	-0.046816	-0.15316	-0.008669	-0.046816	0.031938	-0.008669	0	0	0	-0.13624	0.028595	0.053734	-0.10586	0.017767	0.16855	-0.15787	-0.082839	0.054278
120	1.1213	-0.077249	-0.022264	0.16543	-0.11375	-0.25388	0.20466	-0.097595	-0.249	0.23201	-0.046816	-0.15316	-0.008669	-0.046816	0.031938	-0.008669	0	0	0	-0.13629	0.028488	0.053716	-0.10583	0.017786	0.16853	-0.15787	-0.082959	0.054369
121	1.1307	-0.077131	-0.022235	0.16538	-0.11186	-0.25366	0.20544	-0.095748	-0.24863	0.23278	-0.046816	-0.15316	-0.008669	-0.046816	0.031938	-0.008669	0	0	0	-0.13633	0.028377	0.053697	-0.10581	0.017807	0.1685	-0.15788	-0.083087	0.054465
122	1.1402	-0.077007	-0.022201	0.16534	-0.10989	-0.25343	0.20624	-0.093822	-0.24824	0.23356	-0.046816	-0.15316	-0.008669	-0.046816	0.031938	-0.008669	0	0	0	-0.13638	0.02826	0.053676	-0.10578	0.01783	0.16847	-0.15787	-0.08322	0.054565
123	1.1496	-0.076877	-0.022161	0.16529	-0.10783	-0.25318	0.20707	-0.091819	-0.24783	0.23436	-0.046816	-0.15316	-0.008669	-0.046816	0.031938	-0.008669	0	0	0	-0.13643	0.028138	0.053654	-0.10575	0.017856	0.16844	-0.15787	-0.08336	0.054671
124	1.159	-0.076743	-0.022117	0.16524	-0.10571	-0.25292	0.20791	-0.089744	-0.24741	0.23519	-0.046816	-0.15316	-0.008669	-0.046816	0.031938	-0.008669	0	0	0	-0.13648	0.028011	0.053632	-0.10573	0.017883	0.16841	-0.15787	-0.083505	0.054782
125	1.1684	-0.076604	-0.022069	0.16518	-0.10351	-0.25265	0.20877	-0.0876	-0.24696	0.23602	-0.046816	-0.15316	-0.008669	-0.046816	0.031938	-0.008669	0	0	0	-0.13653	0.02788	0.053608	-0.10569	0.017913	0.16838	-0.15786	-0.083656	0.054897
126	1.1779	-0.07646	-0.022015	0.16513	-0.10124	-0.25237	0.20965	-0.085392	-0.24649	0.23688	-0.046816	-0.15316	-0.008669	-0.046816	0.031938	-0.008669	0	0	0	-0.13659	0.027744	0.053583	-0.10566	0.017944	0.16834	-0.15785	-0.083812	0.055017
127	1.1873	-0.076312	-0.021957	0.16507	-0.098901	-0.25208	0.21054	-0.083122	-0.24601	0.23775	-0.046816	-0.15316	-0.008669	-0.046816	0.031938	-0.008669	0	0	0	-0.13664	0.027604	0.053557	-0.10563	0.017978	0.1683	-0.15784	-0.083972	0.055143
